<?xml version="1.0" ?><svg viewBox="0 0 24 24" xmlns="http://www.w3.org/2000/svg"><title/><circle cx="12" cy="18" fill="#FFFFFF" r="2"/><path d="M21.19,9.81a1,1,0,0,1-.7-.3,12,12,0,0,0-17,0,1,1,0,0,1-1.41,0,1,1,0,0,1,0-1.41,14,14,0,0,1,19.8,0,1,1,0,0,1-.71,1.71Z" fill="#FFFFFF"/><path d="M15.54,15.46a1,1,0,0,1-.71-.29,4.1,4.1,0,0,0-5.66,0,1,1,0,0,1-1.41-1.41,6,6,0,0,1,8.48,0,1,1,0,0,1,0,1.41A1,1,0,0,1,15.54,15.46Z" fill="#FFFFFF"/><path d="M18.36,12.64a1,1,0,0,1-.7-.3,8,8,0,0,0-11.32,0,1,1,0,0,1-1.41-1.41,10,10,0,0,1,14.14,0,1,1,0,0,1,0,1.41A1,1,0,0,1,18.36,12.64Z" fill="#FFFFFF"/></svg>
