<?xml version="1.0" ?><svg viewBox="0 0 24 24" xmlns="http://www.w3.org/2000/svg"><title/><path d="M19.71,18.29,18.32,16.9a8,8,0,1,0-12.64,0L4.29,18.29a1,1,0,0,0,0,1.42,1,1,0,0,0,1.42,0L7.1,18.32a8,8,0,0,0,9.8,0l1.39,1.39a1,1,0,0,0,1.42,0A1,1,0,0,0,19.71,18.29ZM15,13H12a1,1,0,0,1-1-1V9a1,1,0,0,1,2,0v2h2a1,1,0,0,1,0,2Z" fill="#464646"/><path d="M4,6a1,1,0,0,1-.71-.29,1,1,0,0,1,0-1.42l1-1A1,1,0,0,1,5.71,4.71l-1,1A1,1,0,0,1,4,6Z" fill="#464646"/><path d="M20,6a1,1,0,0,1-.71-.29l-1-1a1,1,0,0,1,1.42-1.42l1,1a1,1,0,0,1,0,1.42A1,1,0,0,1,20,6Z" fill="#464646"/></svg>