<?xml version="1.0" ?><svg viewBox="0 0 24 24" xmlns="http://www.w3.org/2000/svg"><title/><path d="M18,7.41l1.29,1.3A1,1,0,0,0,20,9a.84.84,0,0,0,.38-.08A1,1,0,0,0,21,8V4a1,1,0,0,0-.08-.38,1,1,0,0,0-.54-.54A1,1,0,0,0,20,3H16a1,1,0,0,0-.92.62,1,1,0,0,0,.21,1.09L16.59,6,3.29,19.29a1,1,0,0,0,0,1.42,1,1,0,0,0,1.42,0L12,13.41,16.59,18l-1.3,1.29a1,1,0,0,0-.21,1.09A1,1,0,0,0,16,21h4a1,1,0,0,0,.38-.08,1,1,0,0,0,.54-.54A1,1,0,0,0,21,20V16a1,1,0,0,0-.62-.92,1,1,0,0,0-1.09.21L18,16.59,13.41,12Z" fill="#464646"/><path d="M8.29,9.71a1,1,0,0,0,1.42,0,1,1,0,0,0,0-1.42l-5-5A1,1,0,0,0,3.29,4.71Z" fill="#464646"/></svg>