<?xml version="1.0" ?><svg viewBox="0 0 24 24" xmlns="http://www.w3.org/2000/svg"><title/><path d="M16,21a.94.94,0,0,1-.43-.1A1,1,0,0,1,15,20V14.58l-1.34,1.17a1,1,0,0,1-1.32-1.5L14.91,12,12.34,9.75a1,1,0,0,1,1.32-1.5L15,9.42V4a1,1,0,0,1,1.63-.78l5,4a1,1,0,0,1,0,1.53L18,12l3.71,3.25a1,1,0,0,1,0,1.53l-5,4A1,1,0,0,1,16,21Zm1-7.17v4.09l2.44-2Zm0-7.75v4.09L19.44,8Z" fill="#464646"/><path d="M12.84,17.49a2.49,2.49,0,0,1-1.49-4.37L12.63,12l-1.28-1.12a2.52,2.52,0,0,1-.85-1.72,2.5,2.5,0,0,1,2.34-2.65H13V5a1,1,0,0,0-.57-.9,1,1,0,0,0-1,.12L6.65,8H4a2,2,0,0,0-2,2v4a2,2,0,0,0,2,2H6.65l4.73,3.78A1,1,0,0,0,12,20a.91.91,0,0,0,.43-.1A1,1,0,0,0,13,19V17.49Z" fill="#464646"/></svg>