<?xml version="1.0" ?><svg viewBox="0 0 24 24" xmlns="http://www.w3.org/2000/svg"><title/><path d="M16,12a1,1,0,0,1-.49.86l-5,3A1,1,0,0,1,10,16a1,1,0,0,1-.49-.13A1,1,0,0,1,9,15V9a1,1,0,0,1,1.51-.86l5,3A1,1,0,0,1,16,12Z" fill="#464646"/><rect fill="#464646" height="4" rx="1" width="4" x="18" y="2"/><rect fill="#464646" height="4" rx="1" width="4" x="2" y="10"/><rect fill="#464646" height="4" rx="1" width="4" x="2" y="18"/><rect fill="#464646" height="4" rx="1" width="4" x="18" y="2"/><rect fill="#464646" height="4" rx="1" width="4" x="2" y="2"/><rect fill="#464646" height="4" rx="1" width="4" x="2" y="2"/><rect fill="#464646" height="4" rx="1" width="4" x="18" y="10"/><rect fill="#464646" height="4" rx="1" width="4" x="18" y="10"/><rect fill="#464646" height="4" rx="1" width="4" x="18" y="18"/><rect fill="#464646" height="4" rx="1" width="4" x="18" y="18"/></svg>