<?xml version="1.0" ?><svg viewBox="0 0 24 24" xmlns="http://www.w3.org/2000/svg"><title/><path d="M4,7H2V4A2,2,0,0,1,4,2H7V4H4Z" fill="#464646"/><path d="M22,7H20V4H17V2h3a2,2,0,0,1,2,2Z" fill="#464646"/><path d="M7,22H4a2,2,0,0,1-2-2V17H4v3H7Z" fill="#464646"/><path d="M20,22H17V20h3V17h2v3A2,2,0,0,1,20,22Z" fill="#464646"/><path d="M8,9a1,1,0,0,1-.71-.29l-1-1A1,1,0,0,1,7.71,6.29l1,1a1,1,0,0,1,0,1.42A1,1,0,0,1,8,9Z" fill="#464646"/><path d="M16,9a1,1,0,0,1-.71-.29,1,1,0,0,1,0-1.42l1-1a1,1,0,1,1,1.42,1.42l-1,1A1,1,0,0,1,16,9Z" fill="#464646"/><path d="M7,18a1,1,0,0,1-.71-.29,1,1,0,0,1,0-1.42l1-1a1,1,0,0,1,1.42,1.42l-1,1A1,1,0,0,1,7,18Z" fill="#464646"/><path d="M17,18a1,1,0,0,1-.71-.29l-1-1a1,1,0,0,1,1.42-1.42l1,1a1,1,0,0,1,0,1.42A1,1,0,0,1,17,18Z" fill="#464646"/></svg>