<?xml version="1.0" ?><svg viewBox="0 0 24 24" xmlns="http://www.w3.org/2000/svg"><title/><path d="M16,12a1,1,0,0,1-.5.87l-7,4A1,1,0,0,1,8,17a1,1,0,0,1-.5-.13A1,1,0,0,1,7,16V8a1,1,0,0,1,.5-.87,1,1,0,0,1,1,0l7,4A1,1,0,0,1,16,12Z" fill="#464646"/><path d="M21,9H17a1,1,0,0,1,0-2h4a1,1,0,0,1,0,2Z" fill="#464646"/><path d="M21,17H17a1,1,0,0,1,0-2h4a1,1,0,0,1,0,2Z" fill="#464646"/><path d="M21,5H3A1,1,0,0,1,3,3H21a1,1,0,0,1,0,2Z" fill="#464646"/><path d="M21,21H3a1,1,0,0,1,0-2H21a1,1,0,0,1,0,2Z" fill="#464646"/><circle cx="3" cy="8" fill="#464646" r="1"/><circle cx="3" cy="12" fill="#464646" r="1"/><circle cx="3" cy="16" fill="#464646" r="1"/><path d="M21,13H19a1,1,0,0,1,0-2h2a1,1,0,0,1,0,2Z" fill="#464646"/></svg>