<svg height='300px' width='300px'  fill="#000000" xmlns="http://www.w3.org/2000/svg" xmlns:xlink="http://www.w3.org/1999/xlink" version="1.1" x="0px" y="0px" viewBox="0 0 100 100" enable-background="new 0 0 100 100" xml:space="preserve"><path d="M69.705,20.541L69.705,20.541l-0.001,20.945c4.694,0,8.5,3.806,8.5,8.5s-3.806,8.5-8.5,8.5v20.944h0.001  c16.262,0,29.444-13.184,29.444-29.445S85.967,20.541,69.705,20.541z"></path><path d="M66.322,79.917V20.083c0-1.557-1.261-2.819-2.817-2.819H3.669c-1.557,0-2.819,1.263-2.819,2.819v59.834  c0,1.559,1.263,2.819,2.819,2.819h59.836C65.062,82.736,66.322,81.476,66.322,79.917z M45.155,39.537v1.228V53.19h-0.003  c-0.027,1.186-0.759,2.406-2.005,3.118c-1.77,1.01-3.902,0.609-4.761-0.896c-0.859-1.504-0.12-3.543,1.649-4.554  c1.687-0.963,3.699-0.643,4.629,0.69V40.992l-15.521,7.206V60.41h-0.003c-0.052,1.164-0.782,2.354-2.005,3.052  c-1.77,1.011-3.901,0.61-4.761-0.895c-0.859-1.504-0.12-3.543,1.65-4.554c1.686-0.963,3.697-0.644,4.627,0.689V48.427v-1.67v-3.144  l16.502-7.661V39.537z"></path></svg>